<svg xmlns="http://www.w3.org/2000/svg" viewBox="0 0 24 24" width="64" height="64" fill="#040141">
    <path d="M19 7V5h-1.24l-.54-1.09c-.22-.44-.68-.91-1.25-.91H8.03C7.46 3 7 3.55 7 4.25V5H5v2h2v1H4v2h2v1H4v2h2v1H4v2h2v3h2v-2h2v2h2v-2h2v2h2v-2h2v2h2v-2h1.75c.49 0 .89-.33 1.01-.79L19 15.94V18h2v-4h-2zM6 4.25C6 3.56 6.56 3 7.25 3S8.5 3.56 8.5 4.25V5H6V4.25zm12.03 2.11l-1.5 3-.99-1.98L15 7.74V5h3.03zM5.41 6H4v-.42C4 5.09 4.9 4.24 5.41 4zm15.18 1l-1.47 2.95.53 1.07H19V7h1.59zM9.82 8L11 6.26l1.18 1.74H9.82zM8 7h3v3H8V7zm10 0h-1.77l-.59-1.11c-.15-.29-.48-.48-.85-.48s-.7.19-.85.48l-.59 1.11H8.77l-.89-1.33.46-.29L8 5.15l2.33-.47.34-.68C10.61 3.18 11.79 3 12 3s1.39.18 1.92.47l.34.68 2.33.47-.89 1.33.46.29-.89 1.33zM8.45 19H6v-1h2.45c-.24.49-.45 1.01-.45 1.5s.21 1.01.45 1.5zm7.06-1H13V16h2.51c.31.5.56 1.04.7 1.5z"/>
  </svg>
  